G04*
G04 #@! TF.GenerationSoftware,Altium Limited,Altium Designer,18.1.1 (9)*
G04*
G04 Layer_Physical_Order=1*
G04 Layer_Color=255*
%FSLAX44Y44*%
%MOMM*%
G71*
G01*
G75*
%ADD29C,0.7620*%
%ADD30C,2.0320*%
%ADD31C,1.2000*%
%ADD32C,2.0000*%
%ADD33O,2.5000X2.0000*%
%ADD34R,2.5000X2.0000*%
%ADD35O,2.0000X2.5000*%
%ADD36C,1.5000*%
%ADD37C,1.8000*%
%ADD38R,1.8000X1.8000*%
%ADD39R,2.0320X2.0320*%
%ADD40R,2.0320X2.0320*%
%ADD41C,4.0000*%
G36*
X48260Y334010D02*
X50800Y331470D01*
X69576D01*
X69851Y331323D01*
X72964Y330379D01*
X76200Y330060D01*
X79436Y330379D01*
X80714Y330766D01*
X86360Y325120D01*
Y317500D01*
X80697Y311838D01*
X80501Y311798D01*
X79436Y312121D01*
X76200Y312440D01*
X72964Y312121D01*
X72343Y311933D01*
X72139Y311995D01*
X72054Y312052D01*
X71757Y312111D01*
X71731Y312119D01*
X71704Y312121D01*
X71121Y312237D01*
X70211Y312513D01*
X69891Y312482D01*
X69576Y312544D01*
X67452D01*
X66808Y313188D01*
X64708Y314592D01*
X62230Y315084D01*
X39532D01*
X39216Y315022D01*
X38897Y315053D01*
X38589Y314960D01*
X27450D01*
X27143Y315053D01*
X26824Y315022D01*
X26555Y315075D01*
X21590Y320040D01*
Y327660D01*
X27940Y334010D01*
X48260Y334010D01*
D02*
G37*
G36*
X64770Y306070D02*
X69576D01*
X69851Y305923D01*
X72964Y304979D01*
X76200Y304660D01*
X79436Y304979D01*
X80714Y305366D01*
X86360Y299720D01*
Y292100D01*
X80697Y286437D01*
X80501Y286398D01*
X79436Y286721D01*
X76200Y287040D01*
X72964Y286721D01*
X72343Y286533D01*
X72139Y286595D01*
X72054Y286652D01*
X71757Y286711D01*
X71731Y286719D01*
X71704Y286721D01*
X71121Y286837D01*
X70211Y287113D01*
X69891Y287082D01*
X69576Y287144D01*
X33020D01*
X30542Y286652D01*
X29193Y285750D01*
X25400D01*
X22860Y288290D01*
Y308610D01*
X26509D01*
X26671Y308523D01*
X29783Y307579D01*
X33020Y307260D01*
X36256Y307579D01*
X39369Y308523D01*
X39532Y308610D01*
X62230D01*
X64770Y306070D01*
D02*
G37*
G36*
X69851Y280523D02*
X72964Y279579D01*
X76200Y279260D01*
X79436Y279579D01*
X80714Y279966D01*
X86360Y274320D01*
Y266700D01*
X80697Y261038D01*
X80501Y260998D01*
X79436Y261321D01*
X76200Y261640D01*
X72964Y261321D01*
X72343Y261133D01*
X72139Y261195D01*
X72054Y261252D01*
X71757Y261311D01*
X71731Y261319D01*
X71704Y261321D01*
X71121Y261437D01*
X70211Y261713D01*
X69891Y261682D01*
X69576Y261744D01*
X48260D01*
X45782Y261252D01*
X43682Y259848D01*
X40498Y256664D01*
X39532D01*
X39216Y256602D01*
X38897Y256633D01*
X38589Y256540D01*
X27940D01*
X21590Y262890D01*
Y269240D01*
X33020Y280670D01*
X69576D01*
X69851Y280523D01*
D02*
G37*
G36*
Y255123D02*
X72964Y254179D01*
X76200Y253860D01*
X79436Y254179D01*
X80714Y254566D01*
X86360Y248920D01*
Y241300D01*
X80622Y235562D01*
X79436Y235921D01*
X76200Y236240D01*
X72964Y235921D01*
X69851Y234977D01*
X69801Y234950D01*
X62230D01*
X57150Y229870D01*
X22860D01*
Y250190D01*
X26509D01*
X26671Y250103D01*
X29783Y249159D01*
X33020Y248840D01*
X36256Y249159D01*
X39369Y250103D01*
X39532Y250190D01*
X43180D01*
X48260Y255270D01*
X69576D01*
X69851Y255123D01*
D02*
G37*
G36*
X453390Y227330D02*
Y209550D01*
X318770Y74930D01*
X233680D01*
X227330Y81280D01*
Y83820D01*
X187960Y123190D01*
X134223D01*
X131475Y124024D01*
X128270Y124339D01*
X125065Y124024D01*
X122317Y123190D01*
X120650D01*
X118517Y121057D01*
X116653Y119527D01*
X115123Y117663D01*
X113030Y115570D01*
Y113995D01*
X112156Y111115D01*
X111841Y107910D01*
Y102910D01*
X112156Y99705D01*
X112510Y98540D01*
X106680Y92710D01*
X73660D01*
X67310Y99060D01*
X67310Y113030D01*
X124460Y170180D01*
X124460Y199390D01*
X111760Y212090D01*
X86360D01*
X83820Y209550D01*
X82599D01*
X82549Y209577D01*
X79436Y210521D01*
X76200Y210840D01*
X72964Y210521D01*
X71778Y210162D01*
X66040Y215900D01*
Y223520D01*
X71255Y228734D01*
X71731Y228781D01*
X72343Y228967D01*
X72964Y228779D01*
X76200Y228460D01*
X79436Y228779D01*
X80520Y229107D01*
X80622Y229087D01*
X80937Y229150D01*
X81256Y229118D01*
X82166Y229394D01*
X83099Y229580D01*
X83366Y229758D01*
X83674Y229852D01*
X83696Y229870D01*
X123190D01*
X180340Y172720D01*
X213360D01*
X219710Y179070D01*
X219975D01*
X222855Y178197D01*
X226060Y177881D01*
X229265Y178197D01*
X232145Y179070D01*
X244298D01*
X247375Y178137D01*
X250580Y177821D01*
X255580D01*
X258785Y178137D01*
X260702Y178718D01*
X261620Y177800D01*
X297180D01*
X349250Y229870D01*
X450850D01*
X453390Y227330D01*
D02*
G37*
G36*
X650240Y154940D02*
X409595D01*
X409109Y156113D01*
X457968Y204972D01*
X459372Y207072D01*
X459864Y209550D01*
Y227330D01*
X459372Y229808D01*
X457968Y231908D01*
X455428Y234448D01*
X453328Y235852D01*
X450850Y236344D01*
X349250D01*
X346772Y235852D01*
X344672Y234448D01*
X294498Y184274D01*
X270056D01*
X269466Y185544D01*
X270758Y187963D01*
X271693Y191045D01*
X272009Y194250D01*
X271693Y197455D01*
X270758Y200537D01*
X269240Y203377D01*
X267197Y205867D01*
X266688Y206285D01*
Y207555D01*
X267197Y207973D01*
X269240Y210462D01*
X270758Y213303D01*
X271693Y216385D01*
X272009Y219590D01*
X271693Y222795D01*
X270758Y225877D01*
X269240Y228718D01*
X267197Y231207D01*
X266688Y231625D01*
Y232895D01*
X267197Y233313D01*
X269240Y235802D01*
X270758Y238643D01*
X271693Y241725D01*
X272009Y244930D01*
X271693Y248135D01*
X270758Y251217D01*
X269240Y254058D01*
X267197Y256547D01*
X266688Y256965D01*
Y258235D01*
X267197Y258653D01*
X269240Y261143D01*
X270758Y263983D01*
X271693Y267065D01*
X272009Y270270D01*
X271693Y273475D01*
X270758Y276557D01*
X269240Y279398D01*
X267197Y281887D01*
X266688Y282305D01*
Y283575D01*
X267197Y283993D01*
X269240Y286483D01*
X270758Y289323D01*
X271693Y292405D01*
X272009Y295610D01*
X271693Y298815D01*
X270758Y301897D01*
X269240Y304738D01*
X267197Y307227D01*
X266688Y307645D01*
Y308915D01*
X267197Y309333D01*
X269240Y311822D01*
X270758Y314663D01*
X271693Y317745D01*
X272009Y320950D01*
X271693Y324155D01*
X270758Y327237D01*
X269240Y330078D01*
X267197Y332567D01*
X266688Y332985D01*
Y334255D01*
X267197Y334673D01*
X269240Y337163D01*
X270758Y340003D01*
X271693Y343085D01*
X272009Y346290D01*
X271693Y349495D01*
X270758Y352577D01*
X269240Y355418D01*
X267197Y357907D01*
X266688Y358325D01*
Y359595D01*
X267197Y360013D01*
X269240Y362503D01*
X270758Y365343D01*
X271693Y368425D01*
X272009Y371630D01*
X271693Y374835D01*
X270758Y377917D01*
X269240Y380758D01*
X267197Y383247D01*
X266688Y383665D01*
Y384935D01*
X267197Y385353D01*
X269240Y387842D01*
X270758Y390683D01*
X271693Y393765D01*
X272009Y396970D01*
X271693Y400175D01*
X270758Y403257D01*
X269240Y406098D01*
X267197Y408587D01*
X266688Y409005D01*
Y410275D01*
X267197Y410693D01*
X269240Y413182D01*
X270758Y416023D01*
X271693Y419105D01*
X272009Y422310D01*
X271693Y425515D01*
X270758Y428597D01*
X269240Y431438D01*
X267197Y433927D01*
X266688Y434345D01*
Y435615D01*
X267197Y436033D01*
X269240Y438522D01*
X270758Y441363D01*
X271693Y444445D01*
X272009Y447650D01*
X271693Y450855D01*
X270758Y453937D01*
X269240Y456778D01*
X267197Y459267D01*
X266688Y459685D01*
Y460955D01*
X267197Y461373D01*
X269240Y463862D01*
X270758Y466703D01*
X271693Y469785D01*
X272009Y472990D01*
X271693Y476195D01*
X270758Y479277D01*
X269240Y482118D01*
X267197Y484607D01*
X266688Y485025D01*
Y486295D01*
X267197Y486713D01*
X269240Y489202D01*
X270758Y492043D01*
X271693Y495125D01*
X272009Y498330D01*
X271693Y501535D01*
X270758Y504617D01*
X269896Y506231D01*
X270549Y507320D01*
X271930D01*
Y540020D01*
X234230D01*
Y539917D01*
X233141Y539264D01*
X232347Y539688D01*
X229265Y540624D01*
X226060Y540939D01*
X222855Y540624D01*
X219773Y539688D01*
X216933Y538170D01*
X214443Y536127D01*
X212400Y533638D01*
X210882Y530797D01*
X209946Y527715D01*
X209631Y524510D01*
X209946Y521305D01*
X210882Y518223D01*
X212400Y515382D01*
X214443Y512893D01*
X214988Y512445D01*
Y511175D01*
X214443Y510727D01*
X212400Y508237D01*
X210882Y505397D01*
X209946Y502315D01*
X209631Y499110D01*
X209946Y495905D01*
X210882Y492823D01*
X212400Y489982D01*
X214443Y487493D01*
X214988Y487045D01*
Y485775D01*
X214443Y485327D01*
X212400Y482837D01*
X210882Y479997D01*
X209946Y476915D01*
X209631Y473710D01*
X209946Y470505D01*
X210882Y467423D01*
X212400Y464582D01*
X214443Y462093D01*
X214988Y461645D01*
Y460375D01*
X214443Y459927D01*
X212400Y457438D01*
X210882Y454597D01*
X209946Y451515D01*
X209631Y448310D01*
X209946Y445105D01*
X210882Y442023D01*
X212400Y439183D01*
X214443Y436693D01*
X214988Y436245D01*
Y434975D01*
X214443Y434527D01*
X212400Y432038D01*
X210882Y429197D01*
X209946Y426115D01*
X209631Y422910D01*
X209946Y419705D01*
X210882Y416623D01*
X212400Y413783D01*
X214443Y411293D01*
X214988Y410845D01*
Y409575D01*
X214443Y409127D01*
X212400Y406637D01*
X210882Y403797D01*
X209946Y400715D01*
X209631Y397510D01*
X209946Y394305D01*
X210882Y391223D01*
X212400Y388382D01*
X214443Y385893D01*
X214988Y385445D01*
Y384175D01*
X214443Y383727D01*
X214074Y383278D01*
X212804D01*
X212391Y383781D01*
X209877Y385844D01*
X207009Y387377D01*
X203897Y388321D01*
X200660Y388640D01*
X197423Y388321D01*
X194311Y387377D01*
X191443Y385844D01*
X188929Y383781D01*
X186866Y381267D01*
X185333Y378399D01*
X184389Y375286D01*
X184070Y372050D01*
X184389Y368814D01*
X185333Y365701D01*
X186866Y362833D01*
X188929Y360319D01*
X189336Y359985D01*
Y358715D01*
X188929Y358381D01*
X186866Y355867D01*
X185333Y352999D01*
X184389Y349887D01*
X184070Y346650D01*
X184389Y343414D01*
X185333Y340301D01*
X186866Y337433D01*
X188929Y334919D01*
X189336Y334585D01*
Y333315D01*
X188929Y332981D01*
X186866Y330467D01*
X185333Y327599D01*
X184389Y324487D01*
X184070Y321250D01*
X184389Y318013D01*
X185333Y314901D01*
X186866Y312033D01*
X188929Y309519D01*
X189336Y309185D01*
Y307915D01*
X188929Y307581D01*
X186866Y305067D01*
X185333Y302199D01*
X184389Y299086D01*
X184070Y295850D01*
X184389Y292614D01*
X185333Y289501D01*
X186866Y286633D01*
X188929Y284119D01*
X189336Y283785D01*
Y282515D01*
X188929Y282181D01*
X186866Y279667D01*
X185333Y276799D01*
X184389Y273687D01*
X184070Y270450D01*
X184389Y267213D01*
X185333Y264101D01*
X186866Y261233D01*
X188929Y258719D01*
X189336Y258385D01*
Y257115D01*
X188929Y256781D01*
X186866Y254267D01*
X185333Y251399D01*
X184389Y248286D01*
X184070Y245050D01*
X184389Y241814D01*
X185333Y238701D01*
X186866Y235833D01*
X188929Y233319D01*
X189336Y232985D01*
Y231715D01*
X188929Y231381D01*
X186866Y228867D01*
X185333Y225999D01*
X184389Y222887D01*
X184070Y219650D01*
X184389Y216413D01*
X185333Y213301D01*
X186866Y210433D01*
X188929Y207919D01*
X189336Y207585D01*
Y206315D01*
X188929Y205981D01*
X186866Y203467D01*
X185333Y200599D01*
X184389Y197486D01*
X184070Y194250D01*
X184389Y191014D01*
X185333Y187901D01*
X186866Y185033D01*
X188929Y182519D01*
X191433Y180464D01*
X191443Y180359D01*
X190890Y179194D01*
X183022D01*
X127768Y234448D01*
X125668Y235852D01*
X123190Y236344D01*
X92213D01*
X91535Y237614D01*
X92342Y238822D01*
X92834Y241300D01*
Y248920D01*
X92342Y251398D01*
X90938Y253498D01*
X89191Y255245D01*
X87931Y256781D01*
X87524Y257115D01*
Y258385D01*
X87931Y258719D01*
X89741Y260924D01*
X90938Y262122D01*
X92342Y264222D01*
X92834Y266700D01*
Y274320D01*
X92342Y276798D01*
X90938Y278898D01*
X89191Y280645D01*
X87931Y282181D01*
X87524Y282515D01*
Y283785D01*
X87931Y284119D01*
X89741Y286324D01*
X90938Y287522D01*
X92342Y289622D01*
X92834Y292100D01*
Y299720D01*
X92342Y302198D01*
X90938Y304298D01*
X89191Y306045D01*
X87931Y307581D01*
X87524Y307915D01*
Y309185D01*
X87931Y309519D01*
X89741Y311724D01*
X90938Y312922D01*
X92342Y315022D01*
X92834Y317500D01*
Y325120D01*
X92342Y327598D01*
X90938Y329698D01*
X89191Y331445D01*
X87931Y332981D01*
X86395Y334241D01*
X85292Y335344D01*
X84501Y335873D01*
X83766Y336476D01*
X83458Y336570D01*
X83191Y336748D01*
X82259Y336933D01*
X81348Y337210D01*
X81029Y337178D01*
X80714Y337241D01*
X80501Y337198D01*
X79436Y337521D01*
X76200Y337840D01*
X72964Y337521D01*
X72343Y337333D01*
X72139Y337395D01*
X72054Y337452D01*
X71757Y337511D01*
X71731Y337519D01*
X71704Y337521D01*
X71121Y337637D01*
X70211Y337913D01*
X69891Y337882D01*
X69576Y337944D01*
X53482D01*
X52838Y338588D01*
X50738Y339992D01*
X48260Y340484D01*
X27940Y340484D01*
X25462Y339992D01*
X23362Y338588D01*
X17012Y332238D01*
X15608Y330138D01*
X15116Y327660D01*
Y320040D01*
X15608Y317562D01*
X16501Y316226D01*
X16510Y314960D01*
X16510Y314960D01*
X16510Y314960D01*
Y309235D01*
X16386Y308610D01*
Y288290D01*
X16510Y287665D01*
Y281940D01*
X20054D01*
X20822Y281172D01*
X21870Y280472D01*
X22031Y278837D01*
X17012Y273818D01*
X15608Y271718D01*
X15116Y269240D01*
Y262890D01*
X15608Y260412D01*
X17012Y258312D01*
X17610Y257713D01*
X17125Y256540D01*
X16510D01*
Y250815D01*
X16386Y250190D01*
Y229870D01*
X16510Y229245D01*
Y223520D01*
X22235D01*
X22860Y223396D01*
X57150D01*
X58342Y223633D01*
X59566Y222581D01*
Y215900D01*
X60058Y213422D01*
X61462Y211322D01*
X62659Y210124D01*
X64469Y207919D01*
X64876Y207585D01*
Y206315D01*
X64469Y205981D01*
X62406Y203467D01*
X60873Y200599D01*
X59929Y197486D01*
X59610Y194250D01*
X59929Y191014D01*
X60873Y187901D01*
X62406Y185033D01*
X64469Y182519D01*
X66983Y180456D01*
X69851Y178923D01*
X72964Y177979D01*
X76200Y177660D01*
X79436Y177979D01*
X82549Y178923D01*
X85417Y180456D01*
X87931Y182519D01*
X89994Y185033D01*
X91527Y187901D01*
X92471Y191014D01*
X92790Y194250D01*
X92471Y197486D01*
X91527Y200599D01*
X89994Y203467D01*
X89273Y204346D01*
X89874Y205616D01*
X109078D01*
X117986Y196708D01*
X117986Y172862D01*
X100064Y154940D01*
X0D01*
Y650240D01*
X650240D01*
Y154940D01*
D02*
G37*
G36*
X405017Y150362D02*
X405018Y150362D01*
X407118Y148958D01*
X409595Y148466D01*
X650240D01*
Y0D01*
X0D01*
Y148466D01*
X91930D01*
X92416Y147292D01*
X62732Y117608D01*
X61328Y115507D01*
X60835Y113030D01*
X60836Y99060D01*
X61328Y96582D01*
X62732Y94482D01*
X65541Y91673D01*
X65853Y91293D01*
X66233Y90981D01*
X69082Y88132D01*
X71182Y86728D01*
X73660Y86236D01*
X106680D01*
X109158Y86728D01*
X111258Y88132D01*
X114107Y90981D01*
X114487Y91293D01*
X114748Y91611D01*
X115039Y91848D01*
X116246Y91789D01*
X116653Y91293D01*
X119143Y89250D01*
X121983Y87732D01*
X125065Y86797D01*
X128270Y86481D01*
X131475Y86797D01*
X134557Y87732D01*
X137397Y89250D01*
X139887Y91293D01*
X141930Y93783D01*
X143448Y96623D01*
X144383Y99705D01*
X144699Y102910D01*
Y107910D01*
X144383Y111115D01*
X143448Y114197D01*
X142685Y115626D01*
X143338Y116716D01*
X185278D01*
X220891Y81103D01*
X221348Y78802D01*
X222752Y76702D01*
X229102Y70352D01*
X231202Y68948D01*
X233680Y68456D01*
X318770D01*
X321248Y68948D01*
X323348Y70352D01*
X403438Y150441D01*
X405017Y150362D01*
D02*
G37*
%LPC*%
G36*
X389890Y626029D02*
X386685Y625714D01*
X383603Y624779D01*
X380762Y623260D01*
X378273Y621217D01*
X377825Y620672D01*
X376555D01*
X376107Y621217D01*
X373618Y623260D01*
X370777Y624779D01*
X367695Y625714D01*
X364490Y626029D01*
X361285Y625714D01*
X358203Y624779D01*
X355363Y623260D01*
X352873Y621217D01*
X352425Y620672D01*
X351155D01*
X350707Y621217D01*
X348218Y623260D01*
X345377Y624779D01*
X342295Y625714D01*
X339090Y626029D01*
X335885Y625714D01*
X332803Y624779D01*
X329963Y623260D01*
X327473Y621217D01*
X325430Y618727D01*
X323912Y615887D01*
X322976Y612805D01*
X322661Y609600D01*
X322976Y606395D01*
X323912Y603313D01*
X325430Y600472D01*
X327473Y597983D01*
X329963Y595940D01*
X332803Y594422D01*
X335885Y593487D01*
X339090Y593171D01*
X342295Y593487D01*
X345377Y594422D01*
X348218Y595940D01*
X350707Y597983D01*
X351155Y598529D01*
X352425D01*
X352873Y597983D01*
X355363Y595940D01*
X358203Y594422D01*
X361285Y593487D01*
X364490Y593171D01*
X367695Y593487D01*
X370777Y594422D01*
X373618Y595940D01*
X376107Y597983D01*
X376555Y598529D01*
X377825D01*
X378273Y597983D01*
X380762Y595940D01*
X383603Y594422D01*
X386685Y593487D01*
X389890Y593171D01*
X393095Y593487D01*
X396177Y594422D01*
X399017Y595940D01*
X401507Y597983D01*
X403550Y600472D01*
X405069Y603313D01*
X406003Y606395D01*
X406319Y609600D01*
X406003Y612805D01*
X405069Y615887D01*
X403550Y618727D01*
X401507Y621217D01*
X399017Y623260D01*
X396177Y624779D01*
X393095Y625714D01*
X389890Y626029D01*
D02*
G37*
G36*
X615000Y641432D02*
X610865Y641106D01*
X606832Y640138D01*
X603000Y638551D01*
X599464Y636384D01*
X596310Y633690D01*
X593616Y630536D01*
X591449Y627000D01*
X589862Y623168D01*
X588894Y619135D01*
X588568Y615000D01*
X588894Y610865D01*
X589862Y606832D01*
X591449Y603000D01*
X593616Y599464D01*
X596310Y596310D01*
X599464Y593616D01*
X603000Y591449D01*
X606832Y589862D01*
X610865Y588894D01*
X615000Y588568D01*
X619135Y588894D01*
X623168Y589862D01*
X627000Y591449D01*
X630536Y593616D01*
X633690Y596310D01*
X636384Y599464D01*
X638551Y603000D01*
X640138Y606832D01*
X641106Y610865D01*
X641432Y615000D01*
X641106Y619135D01*
X640138Y623168D01*
X638551Y627000D01*
X636384Y630536D01*
X633690Y633690D01*
X630536Y636384D01*
X627000Y638551D01*
X623168Y640138D01*
X619135Y641106D01*
X615000Y641432D01*
D02*
G37*
G36*
X35000D02*
X30865Y641106D01*
X26832Y640138D01*
X23000Y638551D01*
X19464Y636384D01*
X16310Y633690D01*
X13616Y630536D01*
X11449Y627000D01*
X9862Y623168D01*
X8894Y619135D01*
X8569Y615000D01*
X8894Y610865D01*
X9862Y606832D01*
X11449Y603000D01*
X13616Y599464D01*
X16310Y596310D01*
X19464Y593616D01*
X23000Y591449D01*
X26832Y589862D01*
X30865Y588894D01*
X35000Y588568D01*
X39135Y588894D01*
X43168Y589862D01*
X47000Y591449D01*
X50536Y593616D01*
X53690Y596310D01*
X56384Y599464D01*
X58551Y603000D01*
X60138Y606832D01*
X61106Y610865D01*
X61431Y615000D01*
X61106Y619135D01*
X60138Y623168D01*
X58551Y627000D01*
X56384Y630536D01*
X53690Y633690D01*
X50536Y636384D01*
X47000Y638551D01*
X43168Y640138D01*
X39135Y641106D01*
X35000Y641432D01*
D02*
G37*
G36*
X541020Y540939D02*
X537815Y540624D01*
X534733Y539688D01*
X531893Y538170D01*
X529403Y536127D01*
X528590Y535137D01*
X527320D01*
X527197Y535287D01*
X524707Y537330D01*
X521867Y538849D01*
X518785Y539784D01*
X515580Y540099D01*
X510580D01*
X507375Y539784D01*
X504293Y538849D01*
X501452Y537330D01*
X498963Y535287D01*
X496920Y532798D01*
X495401Y529957D01*
X494467Y526875D01*
X494151Y523670D01*
X494467Y520465D01*
X495401Y517383D01*
X496920Y514543D01*
X498963Y512053D01*
X499472Y511635D01*
Y510365D01*
X498963Y509947D01*
X496920Y507458D01*
X495401Y504617D01*
X494467Y501535D01*
X494151Y498330D01*
X494467Y495125D01*
X495401Y492043D01*
X496920Y489202D01*
X498963Y486713D01*
X499472Y486295D01*
Y485025D01*
X498963Y484607D01*
X496920Y482118D01*
X495401Y479277D01*
X494467Y476195D01*
X494151Y472990D01*
X494467Y469785D01*
X495401Y466703D01*
X496920Y463862D01*
X498963Y461373D01*
X499472Y460955D01*
Y459685D01*
X498963Y459267D01*
X496920Y456778D01*
X495401Y453937D01*
X494467Y450855D01*
X494151Y447650D01*
X494467Y444445D01*
X495401Y441363D01*
X496920Y438522D01*
X498963Y436033D01*
X499472Y435615D01*
Y434345D01*
X498963Y433927D01*
X496920Y431438D01*
X495401Y428597D01*
X494467Y425515D01*
X494151Y422310D01*
X494467Y419105D01*
X495401Y416023D01*
X496920Y413182D01*
X498963Y410693D01*
X499472Y410275D01*
Y409005D01*
X498963Y408587D01*
X496920Y406098D01*
X495401Y403257D01*
X494467Y400175D01*
X494151Y396970D01*
X494467Y393765D01*
X495401Y390683D01*
X496920Y387842D01*
X498963Y385353D01*
X499472Y384935D01*
Y383665D01*
X498963Y383247D01*
X496920Y380758D01*
X495401Y377917D01*
X494467Y374835D01*
X494151Y371630D01*
X494467Y368425D01*
X495401Y365343D01*
X496920Y362503D01*
X498963Y360013D01*
X499472Y359595D01*
Y358325D01*
X498963Y357907D01*
X496920Y355418D01*
X495401Y352577D01*
X494467Y349495D01*
X494151Y346290D01*
X494467Y343085D01*
X495401Y340003D01*
X496920Y337163D01*
X498963Y334673D01*
X499472Y334255D01*
Y332985D01*
X498963Y332567D01*
X496920Y330078D01*
X495401Y327237D01*
X494467Y324155D01*
X494151Y320950D01*
X494467Y317745D01*
X495401Y314663D01*
X496920Y311822D01*
X498963Y309333D01*
X499472Y308915D01*
Y307645D01*
X498963Y307227D01*
X496920Y304738D01*
X495401Y301897D01*
X494467Y298815D01*
X494151Y295610D01*
X494467Y292405D01*
X495401Y289323D01*
X496920Y286483D01*
X498963Y283993D01*
X499472Y283575D01*
Y282305D01*
X498963Y281887D01*
X496920Y279398D01*
X495401Y276557D01*
X494467Y273475D01*
X494151Y270270D01*
X494467Y267065D01*
X495401Y263983D01*
X496920Y261143D01*
X498963Y258653D01*
X499472Y258235D01*
Y256965D01*
X498963Y256547D01*
X496920Y254058D01*
X495401Y251217D01*
X494467Y248135D01*
X494151Y244930D01*
X494467Y241725D01*
X495401Y238643D01*
X496920Y235802D01*
X498963Y233313D01*
X499472Y232895D01*
Y231625D01*
X498963Y231207D01*
X496920Y228718D01*
X495401Y225877D01*
X494467Y222795D01*
X494151Y219590D01*
X494467Y216385D01*
X495401Y213303D01*
X496920Y210462D01*
X498963Y207973D01*
X499472Y207555D01*
Y206285D01*
X498963Y205867D01*
X496920Y203377D01*
X495401Y200537D01*
X494467Y197455D01*
X494151Y194250D01*
X494467Y191045D01*
X495401Y187963D01*
X496920Y185123D01*
X498963Y182633D01*
X501452Y180590D01*
X504293Y179072D01*
X507375Y178137D01*
X510580Y177821D01*
X515580D01*
X518785Y178137D01*
X521867Y179072D01*
X524707Y180590D01*
X527197Y182633D01*
X527690Y183233D01*
X528960D01*
X529403Y182693D01*
X531893Y180650D01*
X534733Y179132D01*
X537815Y178197D01*
X541020Y177881D01*
X544225Y178197D01*
X547307Y179132D01*
X550148Y180650D01*
X552637Y182693D01*
X554680Y185182D01*
X556199Y188023D01*
X557133Y191105D01*
X557449Y194310D01*
X557133Y197515D01*
X556199Y200597D01*
X554680Y203438D01*
X552637Y205927D01*
X552091Y206375D01*
Y207645D01*
X552637Y208093D01*
X554680Y210583D01*
X556199Y213423D01*
X557133Y216505D01*
X557449Y219710D01*
X557133Y222915D01*
X556199Y225997D01*
X554680Y228838D01*
X552637Y231327D01*
X552091Y231775D01*
Y233045D01*
X552637Y233493D01*
X554680Y235982D01*
X556199Y238823D01*
X557133Y241905D01*
X557449Y245110D01*
X557133Y248315D01*
X556199Y251397D01*
X554680Y254237D01*
X552637Y256727D01*
X552091Y257175D01*
Y258445D01*
X552637Y258893D01*
X554680Y261383D01*
X556199Y264223D01*
X557133Y267305D01*
X557449Y270510D01*
X557133Y273715D01*
X556199Y276797D01*
X554680Y279638D01*
X552637Y282127D01*
X552091Y282575D01*
Y283845D01*
X552637Y284293D01*
X554680Y286782D01*
X556199Y289623D01*
X557133Y292705D01*
X557449Y295910D01*
X557133Y299115D01*
X556199Y302197D01*
X554680Y305037D01*
X552637Y307527D01*
X552091Y307975D01*
Y309245D01*
X552637Y309693D01*
X554680Y312183D01*
X556199Y315023D01*
X557133Y318105D01*
X557449Y321310D01*
X557133Y324515D01*
X556199Y327597D01*
X554680Y330438D01*
X552637Y332927D01*
X552091Y333375D01*
Y334645D01*
X552637Y335093D01*
X554680Y337583D01*
X556199Y340423D01*
X557133Y343505D01*
X557449Y346710D01*
X557133Y349915D01*
X556199Y352997D01*
X554680Y355838D01*
X552637Y358327D01*
X552091Y358775D01*
Y360045D01*
X552637Y360493D01*
X554680Y362982D01*
X556199Y365823D01*
X557133Y368905D01*
X557449Y372110D01*
X557133Y375315D01*
X556199Y378397D01*
X554680Y381237D01*
X552637Y383727D01*
X552091Y384175D01*
Y385445D01*
X552637Y385893D01*
X554680Y388382D01*
X556199Y391223D01*
X557133Y394305D01*
X557449Y397510D01*
X557133Y400715D01*
X556199Y403797D01*
X554680Y406637D01*
X552637Y409127D01*
X552091Y409575D01*
Y410845D01*
X552637Y411293D01*
X554680Y413783D01*
X556199Y416623D01*
X557133Y419705D01*
X557449Y422910D01*
X557133Y426115D01*
X556199Y429197D01*
X554680Y432038D01*
X552637Y434527D01*
X552091Y434975D01*
Y436245D01*
X552637Y436693D01*
X554680Y439183D01*
X556199Y442023D01*
X557133Y445105D01*
X557449Y448310D01*
X557133Y451515D01*
X556199Y454597D01*
X554680Y457438D01*
X552637Y459927D01*
X552091Y460375D01*
Y461645D01*
X552637Y462093D01*
X554680Y464582D01*
X556199Y467423D01*
X557133Y470505D01*
X557449Y473710D01*
X557133Y476915D01*
X556199Y479997D01*
X554680Y482837D01*
X552637Y485327D01*
X552091Y485775D01*
Y487045D01*
X552637Y487493D01*
X554680Y489982D01*
X556199Y492823D01*
X557133Y495905D01*
X557449Y499110D01*
X557133Y502315D01*
X556199Y505397D01*
X554680Y508237D01*
X552637Y510727D01*
X552091Y511175D01*
Y512445D01*
X552637Y512893D01*
X554680Y515382D01*
X556199Y518223D01*
X557133Y521305D01*
X557449Y524510D01*
X557133Y527715D01*
X556199Y530797D01*
X554680Y533638D01*
X552637Y536127D01*
X550148Y538170D01*
X547307Y539688D01*
X544225Y540624D01*
X541020Y540939D01*
D02*
G37*
G36*
X33020Y565334D02*
X30011Y565038D01*
X27117Y564160D01*
X24451Y562735D01*
X22113Y560817D01*
X20195Y558479D01*
X18770Y555813D01*
X17892Y552919D01*
X17596Y549910D01*
X17892Y546901D01*
X18770Y544007D01*
X20195Y541341D01*
X22113Y539003D01*
X23525Y537845D01*
Y536575D01*
X22113Y535417D01*
X20195Y533079D01*
X18770Y530413D01*
X17892Y527519D01*
X17596Y524510D01*
X17892Y521501D01*
X18770Y518607D01*
X20195Y515941D01*
X22113Y513603D01*
X23525Y512445D01*
Y511175D01*
X22113Y510017D01*
X20195Y507679D01*
X18770Y505013D01*
X17892Y502119D01*
X17596Y499110D01*
X17892Y496101D01*
X18770Y493207D01*
X20195Y490541D01*
X22113Y488203D01*
X24451Y486285D01*
X27117Y484860D01*
X30011Y483982D01*
X33020Y483686D01*
X36029Y483982D01*
X38923Y484860D01*
X41589Y486285D01*
X43927Y488203D01*
X45845Y490541D01*
X47270Y493207D01*
X48148Y496101D01*
X48444Y499110D01*
X48148Y502119D01*
X47270Y505013D01*
X45845Y507679D01*
X43927Y510017D01*
X42515Y511175D01*
Y512445D01*
X43927Y513603D01*
X45845Y515941D01*
X47270Y518607D01*
X48148Y521501D01*
X48444Y524510D01*
X48148Y527519D01*
X47270Y530413D01*
X45845Y533079D01*
X43927Y535417D01*
X42515Y536575D01*
Y537845D01*
X43927Y539003D01*
X45845Y541341D01*
X47270Y544007D01*
X48148Y546901D01*
X48444Y549910D01*
X48148Y552919D01*
X47270Y555813D01*
X45845Y558479D01*
X43927Y560817D01*
X41589Y562735D01*
X38923Y564160D01*
X36029Y565038D01*
X33020Y565334D01*
D02*
G37*
G36*
X618490Y490404D02*
X615481Y490108D01*
X612587Y489230D01*
X609921Y487805D01*
X607583Y485887D01*
X605665Y483549D01*
X604240Y480883D01*
X603362Y477989D01*
X603066Y474980D01*
X603362Y471971D01*
X604240Y469077D01*
X605665Y466411D01*
X607583Y464073D01*
X608995Y462915D01*
Y461645D01*
X607583Y460487D01*
X605665Y458149D01*
X604240Y455483D01*
X603362Y452589D01*
X603066Y449580D01*
X603362Y446571D01*
X604240Y443677D01*
X605665Y441011D01*
X607583Y438673D01*
X608995Y437515D01*
Y436245D01*
X607583Y435087D01*
X605665Y432749D01*
X604240Y430083D01*
X603362Y427189D01*
X603066Y424180D01*
X603362Y421171D01*
X604240Y418277D01*
X605665Y415611D01*
X607583Y413273D01*
X609921Y411355D01*
X612587Y409930D01*
X615481Y409052D01*
X618490Y408756D01*
X621499Y409052D01*
X624393Y409930D01*
X627059Y411355D01*
X629397Y413273D01*
X631315Y415611D01*
X632740Y418277D01*
X633618Y421171D01*
X633914Y424180D01*
X633618Y427189D01*
X632740Y430083D01*
X631315Y432749D01*
X629397Y435087D01*
X627985Y436245D01*
Y437515D01*
X629397Y438673D01*
X631315Y441011D01*
X632740Y443677D01*
X633618Y446571D01*
X633914Y449580D01*
X633618Y452589D01*
X632740Y455483D01*
X631315Y458149D01*
X629397Y460487D01*
X627985Y461645D01*
Y462915D01*
X629397Y464073D01*
X631315Y466411D01*
X632740Y469077D01*
X633618Y471971D01*
X633914Y474980D01*
X633618Y477989D01*
X632740Y480883D01*
X631315Y483549D01*
X629397Y485887D01*
X627059Y487805D01*
X624393Y489230D01*
X621499Y490108D01*
X618490Y490404D01*
D02*
G37*
G36*
X462280Y439182D02*
X458145Y438856D01*
X454112Y437888D01*
X450280Y436301D01*
X446744Y434133D01*
X443590Y431440D01*
X440896Y428286D01*
X438729Y424750D01*
X437142Y420918D01*
X436174Y416885D01*
X435849Y412750D01*
X436174Y408615D01*
X437142Y404582D01*
X438729Y400750D01*
X440896Y397214D01*
X443590Y394060D01*
X446744Y391367D01*
X450280Y389199D01*
X454112Y387612D01*
X458145Y386644D01*
X462280Y386319D01*
X466415Y386644D01*
X470448Y387612D01*
X474280Y389199D01*
X477816Y391367D01*
X480970Y394060D01*
X483663Y397214D01*
X485831Y400750D01*
X487418Y404582D01*
X488386Y408615D01*
X488712Y412750D01*
X488386Y416885D01*
X487418Y420918D01*
X485831Y424750D01*
X483663Y428286D01*
X480970Y431440D01*
X477816Y434133D01*
X474280Y436301D01*
X470448Y437888D01*
X466415Y438856D01*
X462280Y439182D01*
D02*
G37*
G36*
X309880D02*
X305745Y438856D01*
X301712Y437888D01*
X297880Y436301D01*
X294344Y434133D01*
X291190Y431440D01*
X288496Y428286D01*
X286329Y424750D01*
X284742Y420918D01*
X283774Y416885D01*
X283449Y412750D01*
X283774Y408615D01*
X284742Y404582D01*
X286329Y400750D01*
X288496Y397214D01*
X291190Y394060D01*
X294344Y391367D01*
X297880Y389199D01*
X301712Y387612D01*
X305745Y386644D01*
X309880Y386319D01*
X314015Y386644D01*
X318048Y387612D01*
X321880Y389199D01*
X325416Y391367D01*
X328570Y394060D01*
X331264Y397214D01*
X333431Y400750D01*
X335018Y404582D01*
X335986Y408615D01*
X336311Y412750D01*
X335986Y416885D01*
X335018Y420918D01*
X333431Y424750D01*
X331264Y428286D01*
X328570Y431440D01*
X325416Y434133D01*
X321880Y436301D01*
X318048Y437888D01*
X314015Y438856D01*
X309880Y439182D01*
D02*
G37*
G36*
X33020Y462464D02*
X30011Y462168D01*
X27117Y461290D01*
X24451Y459865D01*
X22113Y457947D01*
X20195Y455609D01*
X18770Y452943D01*
X17892Y450049D01*
X17596Y447040D01*
X17892Y444031D01*
X18770Y441137D01*
X20195Y438471D01*
X22113Y436133D01*
X23525Y434975D01*
Y433705D01*
X22113Y432547D01*
X20195Y430209D01*
X18770Y427543D01*
X17892Y424649D01*
X17596Y421640D01*
X17892Y418631D01*
X18770Y415737D01*
X20195Y413071D01*
X22113Y410733D01*
X23525Y409575D01*
Y408305D01*
X22113Y407147D01*
X20195Y404809D01*
X18770Y402143D01*
X17892Y399249D01*
X17596Y396240D01*
X17892Y393231D01*
X18770Y390337D01*
X20195Y387671D01*
X22113Y385333D01*
X24451Y383415D01*
X27117Y381990D01*
X30011Y381112D01*
X33020Y380816D01*
X36029Y381112D01*
X38923Y381990D01*
X41589Y383415D01*
X43927Y385333D01*
X45845Y387671D01*
X47270Y390337D01*
X48148Y393231D01*
X48444Y396240D01*
X48148Y399249D01*
X47270Y402143D01*
X45845Y404809D01*
X43927Y407147D01*
X42515Y408305D01*
Y409575D01*
X43927Y410733D01*
X45845Y413071D01*
X47270Y415737D01*
X48148Y418631D01*
X48444Y421640D01*
X48148Y424649D01*
X47270Y427543D01*
X45845Y430209D01*
X43927Y432547D01*
X42515Y433705D01*
Y434975D01*
X43927Y436133D01*
X45845Y438471D01*
X47270Y441137D01*
X48148Y444031D01*
X48444Y447040D01*
X48148Y450049D01*
X47270Y452943D01*
X45845Y455609D01*
X43927Y457947D01*
X41589Y459865D01*
X38923Y461290D01*
X36029Y462168D01*
X33020Y462464D01*
D02*
G37*
G36*
X76200Y388640D02*
X72964Y388321D01*
X69851Y387377D01*
X66983Y385844D01*
X64469Y383781D01*
X62406Y381267D01*
X60873Y378399D01*
X59929Y375286D01*
X59610Y372050D01*
X59929Y368814D01*
X60873Y365701D01*
X62406Y362833D01*
X64469Y360319D01*
X66983Y358256D01*
X69851Y356723D01*
X72964Y355779D01*
X76200Y355460D01*
X79436Y355779D01*
X82549Y356723D01*
X85417Y358256D01*
X87931Y360319D01*
X89994Y362833D01*
X91527Y365701D01*
X92471Y368814D01*
X92790Y372050D01*
X92471Y375286D01*
X91527Y378399D01*
X89994Y381267D01*
X87931Y383781D01*
X85417Y385844D01*
X82549Y387377D01*
X79436Y388321D01*
X76200Y388640D01*
D02*
G37*
G36*
X449580Y312500D02*
X446343Y312181D01*
X443231Y311237D01*
X440363Y309704D01*
X437849Y307641D01*
X437515Y307234D01*
X436245D01*
X435911Y307641D01*
X433397Y309704D01*
X430529Y311237D01*
X427416Y312181D01*
X424180Y312500D01*
X420943Y312181D01*
X417831Y311237D01*
X414963Y309704D01*
X412449Y307641D01*
X412115Y307234D01*
X410845D01*
X410511Y307641D01*
X407997Y309704D01*
X405129Y311237D01*
X402016Y312181D01*
X398780Y312500D01*
X395544Y312181D01*
X392431Y311237D01*
X389563Y309704D01*
X387049Y307641D01*
X386715Y307234D01*
X385445D01*
X385111Y307641D01*
X382597Y309704D01*
X379729Y311237D01*
X376617Y312181D01*
X373380Y312500D01*
X370144Y312181D01*
X367031Y311237D01*
X364163Y309704D01*
X361649Y307641D01*
X361315Y307234D01*
X360045D01*
X359711Y307641D01*
X357197Y309704D01*
X354329Y311237D01*
X351217Y312181D01*
X347980Y312500D01*
X344743Y312181D01*
X341631Y311237D01*
X338763Y309704D01*
X336249Y307641D01*
X335915Y307234D01*
X334645D01*
X334311Y307641D01*
X331797Y309704D01*
X328929Y311237D01*
X325816Y312181D01*
X322580Y312500D01*
X319343Y312181D01*
X316231Y311237D01*
X313363Y309704D01*
X310849Y307641D01*
X310515Y307234D01*
X309245D01*
X308911Y307641D01*
X306397Y309704D01*
X303529Y311237D01*
X300417Y312181D01*
X297180Y312500D01*
X293944Y312181D01*
X290831Y311237D01*
X287963Y309704D01*
X285449Y307641D01*
X283386Y305127D01*
X281853Y302259D01*
X280909Y299146D01*
X280590Y295910D01*
X280909Y292673D01*
X281853Y289561D01*
X283386Y286693D01*
X285449Y284179D01*
X287963Y282116D01*
X290831Y280583D01*
X293944Y279639D01*
X297180Y279320D01*
X300417Y279639D01*
X303529Y280583D01*
X306397Y282116D01*
X308911Y284179D01*
X309245Y284586D01*
X310515D01*
X310849Y284179D01*
X313363Y282116D01*
X316231Y280583D01*
X319343Y279639D01*
X322580Y279320D01*
X325816Y279639D01*
X328929Y280583D01*
X331797Y282116D01*
X334311Y284179D01*
X334645Y284586D01*
X335915D01*
X336249Y284179D01*
X338763Y282116D01*
X341631Y280583D01*
X344743Y279639D01*
X347980Y279320D01*
X351217Y279639D01*
X354329Y280583D01*
X357197Y282116D01*
X359711Y284179D01*
X360045Y284586D01*
X361315D01*
X361649Y284179D01*
X364163Y282116D01*
X367031Y280583D01*
X370144Y279639D01*
X373380Y279320D01*
X376617Y279639D01*
X379729Y280583D01*
X382597Y282116D01*
X385111Y284179D01*
X385445Y284586D01*
X386715D01*
X387049Y284179D01*
X389563Y282116D01*
X392431Y280583D01*
X395544Y279639D01*
X398780Y279320D01*
X402016Y279639D01*
X405129Y280583D01*
X407997Y282116D01*
X410511Y284179D01*
X410845Y284586D01*
X412115D01*
X412449Y284179D01*
X414963Y282116D01*
X417831Y280583D01*
X420943Y279639D01*
X424180Y279320D01*
X427416Y279639D01*
X430529Y280583D01*
X433397Y282116D01*
X435911Y284179D01*
X436245Y284586D01*
X437515D01*
X437849Y284179D01*
X440363Y282116D01*
X443231Y280583D01*
X446343Y279639D01*
X449580Y279320D01*
X452817Y279639D01*
X455929Y280583D01*
X458797Y282116D01*
X461311Y284179D01*
X463374Y286693D01*
X464907Y289561D01*
X465851Y292673D01*
X466170Y295910D01*
X465851Y299146D01*
X464907Y302259D01*
X463374Y305127D01*
X461311Y307641D01*
X458797Y309704D01*
X455929Y311237D01*
X452817Y312181D01*
X449580Y312500D01*
D02*
G37*
G36*
X618490Y387534D02*
X615481Y387238D01*
X612587Y386360D01*
X609921Y384935D01*
X607583Y383017D01*
X605665Y380679D01*
X604240Y378013D01*
X603362Y375119D01*
X603066Y372110D01*
X603362Y369101D01*
X604240Y366207D01*
X605665Y363541D01*
X607583Y361203D01*
X608995Y360045D01*
Y358775D01*
X607583Y357617D01*
X605665Y355279D01*
X604240Y352613D01*
X603362Y349719D01*
X603066Y346710D01*
X603362Y343701D01*
X604240Y340807D01*
X605665Y338141D01*
X607583Y335803D01*
X608995Y334645D01*
Y333375D01*
X607583Y332217D01*
X605665Y329879D01*
X604240Y327213D01*
X603362Y324319D01*
X603066Y321310D01*
X603362Y318301D01*
X604240Y315407D01*
X605665Y312741D01*
X607583Y310403D01*
X609921Y308485D01*
X612587Y307060D01*
X615481Y306182D01*
X618490Y305886D01*
X621499Y306182D01*
X624393Y307060D01*
X627059Y308485D01*
X629397Y310403D01*
X631315Y312741D01*
X632740Y315407D01*
X633618Y318301D01*
X633914Y321310D01*
X633618Y324319D01*
X632740Y327213D01*
X631315Y329879D01*
X629397Y332217D01*
X627985Y333375D01*
Y334645D01*
X629397Y335803D01*
X631315Y338141D01*
X632740Y340807D01*
X633618Y343701D01*
X633914Y346710D01*
X633618Y349719D01*
X632740Y352613D01*
X631315Y355279D01*
X629397Y357617D01*
X627985Y358775D01*
Y360045D01*
X629397Y361203D01*
X631315Y363541D01*
X632740Y366207D01*
X633618Y369101D01*
X633914Y372110D01*
X633618Y375119D01*
X632740Y378013D01*
X631315Y380679D01*
X629397Y383017D01*
X627059Y384935D01*
X624393Y386360D01*
X621499Y387238D01*
X618490Y387534D01*
D02*
G37*
G36*
Y284664D02*
X615481Y284368D01*
X612587Y283490D01*
X609921Y282065D01*
X607583Y280147D01*
X605665Y277809D01*
X604240Y275143D01*
X603362Y272249D01*
X603066Y269240D01*
X603362Y266231D01*
X604240Y263337D01*
X605665Y260671D01*
X607583Y258333D01*
X608995Y257175D01*
Y255905D01*
X607583Y254747D01*
X605665Y252409D01*
X604240Y249743D01*
X603362Y246849D01*
X603066Y243840D01*
X603362Y240831D01*
X604240Y237937D01*
X605665Y235271D01*
X607583Y232933D01*
X608995Y231775D01*
Y230505D01*
X607583Y229347D01*
X605665Y227009D01*
X604240Y224343D01*
X603362Y221449D01*
X603066Y218440D01*
X603362Y215431D01*
X604240Y212537D01*
X605665Y209871D01*
X607583Y207533D01*
X609921Y205615D01*
X612587Y204190D01*
X615481Y203312D01*
X618490Y203016D01*
X621499Y203312D01*
X624393Y204190D01*
X627059Y205615D01*
X629397Y207533D01*
X631315Y209871D01*
X632740Y212537D01*
X633618Y215431D01*
X633914Y218440D01*
X633618Y221449D01*
X632740Y224343D01*
X631315Y227009D01*
X629397Y229347D01*
X627985Y230505D01*
Y231775D01*
X629397Y232933D01*
X631315Y235271D01*
X632740Y237937D01*
X633618Y240831D01*
X633914Y243840D01*
X633618Y246849D01*
X632740Y249743D01*
X631315Y252409D01*
X629397Y254747D01*
X627985Y255905D01*
Y257175D01*
X629397Y258333D01*
X631315Y260671D01*
X632740Y263337D01*
X633618Y266231D01*
X633914Y269240D01*
X633618Y272249D01*
X632740Y275143D01*
X631315Y277809D01*
X629397Y280147D01*
X627059Y282065D01*
X624393Y283490D01*
X621499Y284368D01*
X618490Y284664D01*
D02*
G37*
G36*
X245110Y58419D02*
X241494Y57944D01*
X238125Y56548D01*
X235232Y54328D01*
X233012Y51435D01*
X231616Y48066D01*
X231140Y44450D01*
X231616Y40834D01*
X233012Y37465D01*
X235232Y34572D01*
X238125Y32352D01*
X241494Y30956D01*
X245110Y30480D01*
X248726Y30956D01*
X252095Y32352D01*
X254988Y34572D01*
X257208Y37465D01*
X258603Y40834D01*
X259079Y44450D01*
X258603Y48066D01*
X257208Y51435D01*
X254988Y54328D01*
X252095Y56548D01*
X248726Y57944D01*
X245110Y58419D01*
D02*
G37*
G36*
X212090Y48970D02*
X179070D01*
Y15950D01*
X212090D01*
Y48970D01*
D02*
G37*
G36*
X149860D02*
X116840D01*
Y15950D01*
X149860D01*
Y48970D01*
D02*
G37*
%LPD*%
D29*
X474980Y295910D02*
Y306070D01*
X415290Y365760D02*
X474980Y306070D01*
X415290Y365760D02*
Y609600D01*
X638810Y295610D02*
Y396240D01*
Y205740D02*
Y295610D01*
X637840Y294640D02*
X638810Y295610D01*
X618490Y294640D02*
X637840D01*
X638810Y396240D02*
Y500380D01*
X637540Y397510D02*
X638810Y396240D01*
X618490Y397510D02*
X637540D01*
X638810Y500380D02*
Y509270D01*
X618490Y500380D02*
X638810D01*
X8890Y472990D02*
Y561340D01*
Y379730D02*
Y472990D01*
X9610Y473710D01*
X33020D01*
X17780Y370840D02*
X33020D01*
X8890Y379730D02*
X17780Y370840D01*
X8890Y561340D02*
X25400Y577850D01*
X45720D01*
X109220Y641350D01*
X400050D01*
X415290Y626110D01*
Y609600D02*
Y626110D01*
Y609600D02*
X538480D01*
X638810Y509270D01*
X601980Y168910D02*
X638810Y205740D01*
X541020Y168910D02*
X601980D01*
D30*
X297180Y295910D02*
D03*
X322580D02*
D03*
X347980D02*
D03*
X373380D02*
D03*
X398780D02*
D03*
X424180D02*
D03*
X449580D02*
D03*
X474980D02*
D03*
X76200Y372050D02*
D03*
Y346650D02*
D03*
Y321250D02*
D03*
Y295850D02*
D03*
Y270450D02*
D03*
Y245050D02*
D03*
Y219650D02*
D03*
Y194250D02*
D03*
X200660D02*
D03*
Y219650D02*
D03*
Y245050D02*
D03*
Y270450D02*
D03*
Y295850D02*
D03*
Y321250D02*
D03*
Y346650D02*
D03*
Y372050D02*
D03*
X33020Y265430D02*
D03*
Y323850D02*
D03*
X107950Y32460D02*
D03*
X170180D02*
D03*
D31*
X182880Y130810D02*
D03*
Y105410D02*
D03*
D32*
X226060Y524510D02*
D03*
Y499110D02*
D03*
Y473710D02*
D03*
Y448310D02*
D03*
Y422910D02*
D03*
Y397510D02*
D03*
Y372110D02*
D03*
Y346710D02*
D03*
Y321310D02*
D03*
Y295910D02*
D03*
Y270510D02*
D03*
Y245110D02*
D03*
Y219710D02*
D03*
Y194310D02*
D03*
Y168910D02*
D03*
X541020Y524510D02*
D03*
Y499110D02*
D03*
Y473710D02*
D03*
Y448310D02*
D03*
Y422910D02*
D03*
Y397510D02*
D03*
Y372110D02*
D03*
Y346710D02*
D03*
Y321310D02*
D03*
Y295910D02*
D03*
Y270510D02*
D03*
Y245110D02*
D03*
Y219710D02*
D03*
Y194310D02*
D03*
Y168910D02*
D03*
X339090Y609600D02*
D03*
X364490D02*
D03*
X389890D02*
D03*
X415290D02*
D03*
D33*
X513080Y168910D02*
D03*
Y194250D02*
D03*
Y219590D02*
D03*
Y244930D02*
D03*
Y270270D02*
D03*
Y295610D02*
D03*
Y320950D02*
D03*
Y346290D02*
D03*
Y371630D02*
D03*
Y396970D02*
D03*
Y422310D02*
D03*
Y447650D02*
D03*
Y472990D02*
D03*
Y498330D02*
D03*
Y523670D02*
D03*
X253080Y168910D02*
D03*
Y194250D02*
D03*
Y219590D02*
D03*
Y244930D02*
D03*
Y270270D02*
D03*
Y295610D02*
D03*
Y320950D02*
D03*
Y346290D02*
D03*
Y371630D02*
D03*
Y396970D02*
D03*
Y422310D02*
D03*
Y447650D02*
D03*
Y472990D02*
D03*
Y498330D02*
D03*
D34*
Y523670D02*
D03*
D35*
X128270Y105410D02*
D03*
X102870D02*
D03*
X77470D02*
D03*
D36*
X245110Y44450D02*
D03*
Y19050D02*
D03*
D37*
X618490Y424180D02*
D03*
Y474980D02*
D03*
Y449580D02*
D03*
Y321310D02*
D03*
Y372110D02*
D03*
Y346710D02*
D03*
Y218440D02*
D03*
Y269240D02*
D03*
Y243840D02*
D03*
X33020Y447040D02*
D03*
Y396240D02*
D03*
Y421640D02*
D03*
Y549910D02*
D03*
Y499110D02*
D03*
Y524510D02*
D03*
D38*
X618490Y500380D02*
D03*
Y397510D02*
D03*
Y294640D02*
D03*
X33020Y370840D02*
D03*
Y473710D02*
D03*
D39*
Y240030D02*
D03*
Y298450D02*
D03*
D40*
X133350Y32460D02*
D03*
X195580D02*
D03*
D41*
X35000Y35000D02*
D03*
Y615000D02*
D03*
X615000Y35000D02*
D03*
X462280Y412750D02*
D03*
X309880D02*
D03*
X615000Y615000D02*
D03*
M02*
