M48
;Layer_Color=9474304
;FILE_FORMAT=4:4
METRIC,TZ
;TYPE=PLATED
T1F00S00C0.6000
T2F00S00C0.7500
T3F00S00C1.0000
T4F00S00C1.0160
T5F00S00C1.1000
T6F00S00C1.2000
T7F00S00C3.1000
%
T01
X182880Y105410
Y130810
T02
X245110Y19050
Y44450
T03
X513080Y168910
Y194250
Y219590
Y244930
Y270270
X541020Y270510
Y245110
Y219710
Y194310
Y168910
X253080
Y194250
Y219590
Y244930
Y270270
X226060Y270510
Y245110
Y219710
Y194310
Y168910
X128270Y105410
X102870
X77470
X226060Y295910
Y321310
Y346710
Y372110
Y397510
Y422910
Y448310
Y473710
Y499110
Y524510
X253080Y523670
Y498330
Y472990
Y447650
Y422310
Y396970
Y371630
Y346290
Y320950
Y295610
X339090Y609600
X364490
X389890
X415290
X513080Y523670
Y498330
Y472990
Y447650
Y422310
Y396970
Y371630
Y346290
Y320950
Y295610
X541020Y295910
Y321310
Y346710
Y372110
Y397510
Y422910
Y448310
Y473710
Y499110
Y524510
T04
X76200Y194250
Y219650
Y245050
Y270450
X200660
Y245050
Y219650
Y194250
Y295850
Y321250
Y346650
Y372050
X76200
Y346650
Y321250
Y295850
X297180Y295910
X322580
X347980
X373380
X398780
X424180
X449580
X474980
T05
X107950Y32460
X133350
X170180
X195580
X33020Y240030
Y265430
Y298450
Y323850
T06
X618490Y218440
Y243840
Y269240
X33020Y370840
Y396240
Y421640
Y447040
Y473710
Y499110
Y524510
Y549910
X618490Y500380
Y474980
Y449580
Y424180
Y397510
Y372110
Y346710
Y321310
Y294640
T07
X615000Y35000
X35000
Y615000
X309880Y412750
X462280
X615000Y615000
M30
